@startuml
package "Monolith" {
package "0"{
class IFloorService
class TreeNode
class FloorController
class FloorService
class RoomCleanRecord
class RoomCleanController
class RoomCleanRecordController
class RoomController
class RoomCleanService
class IRoomCleanService
class Room
class Floor
class FloorRepository
class RoomRepository
class RoomClean
class RoomService
class IRoomService
class RoomCleanRecordRepository
class RoomCleanRecordService
class IRoomCleanRecordService
class OutStorageRepository
class RoomCleanRepository
class FloorVoRoomVoRoomCleanRepository
class OutDetailedRepository
class FloorVoRoomVoRoomClean
class FloorVoRoomVoRoomCleanDTO
class RoomDto
}
package "2"{
class Employee
class SessionUtil
class EmployeeService
class ExtAjaxResponse
class ExtAjaxResponse
class ExtAjaxResponse
class EmployeeService
}
package "6"{
}
package "7"{
}
package "8"{
}
package "15"{
}
}
package "1"{
}
package "3"{
}
package "4"{
}
package "5"{
}
package "9"{
}
package "10"{
}
package "11"{
}
package "12"{
}
package "13"{
}
package "14"{
}
package "16"{
}
"0"-->"2":Employee:variableType, methodVariable
"0"-->"2":SessionUtil:methodInvocation
"0"-->"2":EmployeeService:methodInvocation, variableType
"0"-->"2":ExtAjaxResponse:methodVariable
"0"-->"2":ExtAjaxResponse:methodVariable
"0"-->"2":ExtAjaxResponse:methodVariable
"0"-->"2":EmployeeService:variableType
@enduml