@startuml
package "Monolith" {
package "11"{
class RoomOrder
class RoomOrderService
class RoomOrderController
class IRoomOrderService
class RoomOrderDTO
class RoomOrderQueryDTO
class RoomOrderRepository
}
package "0"{
}
package "1"{
}
package "2"{
class Employee
class EmployeeDao
class SessionUtil
class ExtAjaxResponse
}
package "3"{
}
package "4"{
}
package "5"{
}
package "6"{
}
package "7"{
}
package "8"{
}
package "10"{
class ExtjsPageRequest
}
package "12"{
}
package "13"{
}
package "14"{
}
package "15"{
}
}
package "9"{
}
package "16"{
}
"11"-->"2":Employee:variableType, methodVariable
"11"-->"2":EmployeeDao:methodInvocation, variableType
"11"-->"2":SessionUtil:methodInvocation
"11"-->"2":ExtAjaxResponse:methodVariable
"11"-->"10":ExtjsPageRequest:methodInvocation, methodVariable
"15"-->"11":RoomOrderRepository:methodInvocation, variableType
@enduml