@startuml
package "Monolith" {
package "14"{
class GuestController
class GuestService
class IGuestService
class GuestRepository
class Guest
class GuestDto
class GuestInfoDto
}
package "0"{
class Room
class Room
}
package "2"{
class ExtAjaxResponse
}
package "6"{
}
package "7"{
}
package "8"{
}
package "15"{
}
}
package "1"{
}
package "3"{
}
package "4"{
}
package "5"{
}
package "9"{
}
package "10"{
}
package "11"{
}
package "12"{
}
package "13"{
}
package "16"{
}
"14"-->"0":Room:methodInvocation
"14"-->"0":Room:variableType, methodVariable
"14"-->"2":ExtAjaxResponse:methodVariable
"0"-->"14":IGuestService:methodInvocation, variableType
"0"-->"14":Guest:methodInvocation
@enduml