@startuml
package "Monolith" {
package "8"{
class LeaveService
class Leave
class ReportBackEndProcessor
class AfterModifyApplyContentProcessor
class LeaveController
class LeaveQueryDTO
class ILeaveService
class LeaveDTO
class LeaveEmpDTO
class LeaveRepository
}
package "2"{
class IWorkflowService
class WorkflowDTO
class Employee
class Employee
class Employee
class EmployeeService
class Employee
class EmployeeService
class SessionUtil
class EmployeeService
class Employee
class ExtAjaxResponse
}
package "7"{
}
package "15"{
}
}
package "0"{
}
package "1"{
}
package "3"{
}
package "4"{
}
package "5"{
}
package "6"{
}
package "9"{
}
package "10"{
}
package "11"{
}
package "12"{
}
package "13"{
}
package "14"{
}
package "16"{
}
"8"-->"2":IWorkflowService:methodInvocation, variableType
"8"-->"2":WorkflowDTO:methodInvocation
"8"-->"2":Employee:methodInvocation
"8"-->"2":Employee:variableType, methodVariable
"8"-->"2":Employee:methodInvocation
"8"-->"2":EmployeeService:methodInvocation, variableType
"8"-->"2":Employee:methodInvocation
"8"-->"2":EmployeeService:methodInvocation, variableType
"8"-->"2":SessionUtil:methodInvocation
"8"-->"2":EmployeeService:methodInvocation, variableType
"8"-->"2":Employee:methodInvocation
"8"-->"2":ExtAjaxResponse:methodVariable
"2"-->"8":Leave:methodVariable
"7"-->"8":ILeaveService:methodInvocation, variableType
@enduml