@startuml
package "Monolith" {
package "6"{
class TravelServiceImpl
class Travel
class TravelController
class TravelQueryDTO
class TravelService
class TravelEmpDTO
class TravelDTO
class afterEmployModifyApplyContentProcessor
class travelPocessReportBack
class TravelDao
}
package "2"{
class IWorkflowService
class WorkflowDTO
class Employee
class EmployeeService
class Employee
class SessionUtil
class EmployeeService
class Employee
class ExtAjaxResponse
}
package "7"{
}
package "8"{
}
package "15"{
}
}
package "0"{
}
package "1"{
}
package "3"{
}
package "4"{
}
package "5"{
}
package "9"{
}
package "10"{
}
package "11"{
}
package "12"{
}
package "13"{
}
package "14"{
}
package "16"{
}
"6"-->"2":IWorkflowService:methodInvocation, variableType
"6"-->"2":WorkflowDTO:methodInvocation
"6"-->"2":Employee:methodInvocation
"6"-->"2":EmployeeService:methodInvocation, variableType
"6"-->"2":Employee:variableType, methodVariable
"6"-->"2":SessionUtil:methodInvocation
"6"-->"2":EmployeeService:methodInvocation, variableType
"6"-->"2":Employee:methodInvocation
"6"-->"2":ExtAjaxResponse:methodVariable
"2"-->"6":Travel:methodVariable
"7"-->"6":TravelService:methodInvocation, variableType
@enduml