@startuml
package "Monolith" {
package "1"{
class Inscripcion
class ConsultaInscripcionController
class ProcessorInscripcion
class InscripcionesController
class ModificarInscripcion
class InscripcionRep
class InscripcionDto
}
package "2"{
class CertificadoRep
class Certificado
class Logging
class Logging
}
package "3"{
class Grupo
class GrupoRep
class Grupo
class GrupoRep
class GrupoRep
class Grupo
class GrupoRep
class Grupo
}
package "4"{
}
package "5"{
}
package "6"{
class CursoRep
class Curso
class CursoRep
class CursoRep
class Tipo_cursoRep
}
package "8"{
}
}
package "0"{
}
package "7"{
}
"1"-->"2":CertificadoRep:methodInvocation, variableType
"1"-->"2":Certificado:methodInvocation
"1"-->"2":Logging:methodInvocation, variableType
"1"-->"2":Logging:methodInvocation, variableType
"1"-->"3":Grupo:variableType, methodVariable, databaseDependency
"1"-->"3":GrupoRep:methodInvocation, variableType
"1"-->"3":Grupo:methodInvocation
"1"-->"3":GrupoRep:methodInvocation, variableType
"1"-->"3":GrupoRep:methodInvocation, variableType
"1"-->"3":Grupo:methodInvocation
"1"-->"3":GrupoRep:methodInvocation, variableType
"1"-->"3":Grupo:methodInvocation
"1"-->"6":CursoRep:methodInvocation, variableType
"1"-->"6":Curso:methodInvocation
"1"-->"6":CursoRep:methodInvocation, variableType
"1"-->"6":CursoRep:variableType
"1"-->"6":Tipo_cursoRep:variableType
"2"-->"1":InscripcionRep:variableType
"2"-->"1":Inscripcion:methodInvocation
"3"-->"1":Inscripcion:methodVariable, databaseDependency
"3"-->"1":InscripcionRep:variableType
"3"-->"1":InscripcionRep:variableType
"4"-->"1":InscripcionRep:methodInvocation, variableType
"5"-->"1":ProcessorInscripcion:variableType
"5"-->"1":Inscripcion:methodVariable
"6"-->"1":InscripcionRep:variableType
"8"-->"1":InscripcionDto:methodVariable
"8"-->"1":InscripcionDto:variableType, methodVariable
@enduml