@startuml
package "10"{
class OutController
class OutStorage
class InController
class DoSend
class ExtjsPageRequest
class StockController
class InSendController
class IInDetailedService
class IOutDetailedService
class IOutStorageService
class IStockService
class OutDTO
class InDetailed
class InDetailedService
class OutDetailed
class OutDetailedService
class OutStorageService
class Stock
class DailyNecessaryDto
class StockService
class ShowInDetailedWinGrilDTO
class IDoSendService
class InDTO
class DoSendService
class StockRepository
class StockDTO
class DoSendRepository
class InSendDTO
class ExtjsPageRequestHandleRequest
class InDetailedHandleRequest
class InStorageRequestInterfaceImpl
class IInStorageServiceRequestInterfaceImpl
class InDetailedRepositoryRequestInterfaceImpl
class EmployeeRequestInterfaceImpl
class SessionUtilRequestInterfaceImpl
class EmployeeServiceRequestInterfaceImpl
class OutDetailedRepositoryRequestInterfaceImpl
class OutStorageRepositoryRequestInterfaceImpl
class OutStorageHandleRequest
class OutDetailedHandleRequest
class IStockServiceHandleRequest
class StockHandleRequest
class StockRepositoryHandleRequest
interface InStorageRequestInterface
interface IInStorageServiceDTOInterface
interface IInStorageServiceRequestInterface
interface InDetailedRepositoryDTOInterface
interface InDetailedRepositoryRequestInterface
interface EmployeeRequestInterface
interface SessionUtilRequestInterface
interface EmployeeServiceDTOInterface
interface EmployeeServiceRequestInterface
interface OutDetailedRepositoryDTOInterface
interface OutDetailedRepositoryRequestInterface
interface OutStorageRepositoryDTOInterface
interface OutStorageRepositoryRequestInterface
class InStorageDTO
class IInStorageServiceDTO
class InDetailedRepositoryDTO
class EmployeeDTO
class ExtAjaxResponseDTO
class EmployeeServiceDTO
class RoomCleanRecordDTO
class OutDetailedRepositoryDTO
class OutStorageRepositoryDTO
}
package "1"{
class BcardController
}
package "3"{
class DeptController
}
package "4"{
class InStorage
class InStorage
class InStorage
class IInStorageService
class InDetailedRepository
class InStorageService
class InStorageController
}
package "5"{
class GroupController
}
package "9"{
}
package "11"{
class RoomOrderController
}
package "13"{
class LoseGoodsController
}
package "16"{
}
package "Monolith" {
package "0"{
class OutDetailedRepository
class OutStorageRepository
class RoomCleanController
class RoomCleanController
class RoomCleanController
class RoomCleanController
class RoomController
class RoomCleanService
class RoomCleanService
class RoomCleanService
class RoomCleanService
class RoomCleanService
}
package "2"{
class Employee
class Employee
class SessionUtil
class EmployeeService
class EmployeeController
class ProcessDefinitionController
}
package "6"{
class TravelController
}
package "7"{
class workController
}
package "8"{
class LeaveController
}
package "12"{
class SalaryController
}
package "14"{
class GuestController
}
package "15"{
class FinanceReportDailyController
}
}
"10"..>"4":InStorage:getInStorageDate (HTTP)
"10"..>"4":InStorage:getInStorageId (HTTP)
"10"..>"4":InStorage:setInStorageId (HTTP)
"10"..>"4":IInStorageService:save (HTTP)
"10"..>"4":InDetailedRepository:save (HTTP)
"10"..>"2":Employee:getUserName (HTTP)
"10"..>"2":Employee:getUserName (HTTP)
"10"..>"2":SessionUtil:getUserName (HTTP)
"10"..>"2":EmployeeService:findByUserName (HTTP)
"10"..>"0":OutDetailedRepository:save (HTTP)
"10"..>"0":OutStorageRepository:save (HTTP)
"1"..>"10":ExtjsPageRequest:getPageable (HTTP)
"3"..>"10":ExtjsPageRequest:getPageable (HTTP)
"4"..>"10":InDetailed:setPrice (HTTP)
"4"..>"10":ExtjsPageRequest:getPageable (HTTP)
"5"..>"10":ExtjsPageRequest:getPageable (HTTP)
"11"..>"10":ExtjsPageRequest:getPageable (HTTP)
"13"..>"10":ExtjsPageRequest:getPageable (HTTP)
"0"..>"10":OutStorage:getOutDetailed (HTTP)
"0"..>"10":OutDetailed:getGoodsNo (HTTP)
"0"..>"10":IStockService:findByGoodsNo (HTTP)
"0"..>"10":Stock:getAmount (HTTP)
"0"..>"10":IStockService:findByStockType (HTTP)
"0"..>"10":ExtjsPageRequest:getPageable (HTTP)
"0"..>"10":StockRepository:findByStockType (HTTP)
"0"..>"10":OutStorage:setRoomNo (HTTP)
"0"..>"10":OutDetailed:setAmount (HTTP)
"0"..>"10":Stock:getGoodsName (HTTP)
"2"..>"10":ExtjsPageRequest:getPageable (HTTP)
"2"..>"10":ExtjsPageRequest:getPageable (HTTP)
"6"..>"10":ExtjsPageRequest:getPageable (HTTP)
"7"..>"10":ExtjsPageRequest:getPageable (HTTP)
"8"..>"10":ExtjsPageRequest:getPageable (HTTP)
"12"..>"10":ExtjsPageRequest:getPageable (HTTP)
"14"..>"10":ExtjsPageRequest:setSort (HTTP)
"15"..>"10":ExtjsPageRequest:getPageable (HTTP)
@enduml