@startuml
package "11"{
class RoomOrder
class RoomOrderService
class RoomOrderController
class IRoomOrderService
class RoomOrderDTO
class RoomOrderQueryDTO
class RoomOrderRepository
class EmployeeDaoRequestInterfaceImpl
class SessionUtilRequestInterfaceImpl
class ExtjsPageRequestRequestInterfaceImpl
class RoomOrderRepositoryHandleRequest
interface EmployeeDaoDTOInterface
interface EmployeeDaoRequestInterface
interface SessionUtilRequestInterface
interface ExtjsPageRequestDTOInterface
interface ExtjsPageRequestRequestInterface
class EmployeeDTO
class EmployeeDaoDTO
class ExtAjaxResponseDTO
class ExtjsPageRequestDTO
}
package "9"{
}
package "16"{
}
package "Monolith" {
package "0"{
}
package "1"{
}
package "2"{
class EmployeeDao
class SessionUtil
}
package "3"{
}
package "4"{
}
package "5"{
}
package "6"{
}
package "7"{
}
package "8"{
}
package "10"{
class ExtjsPageRequest
}
package "12"{
}
package "13"{
}
package "14"{
}
package "15"{
class FinanceReportDailyService
}
}
"11"..>"2":EmployeeDao:findByUserName (HTTP)
"11"..>"2":SessionUtil:getUser (HTTP)
"11"..>"10":ExtjsPageRequest:getPageable (HTTP)
"15"..>"11":RoomOrderRepository:findRoomOrderByDay (HTTP)
@enduml