@startuml
package "Monolith" {
package "13"{
class LoseGoodsController
class ILoseGoodsService
class LoseGoods
class LoseGoodsDTO
class LoseGoodsService
class LoseGoodsRepository
}
package "0"{
}
package "1"{
}
package "2"{
class ExtAjaxResponse
}
package "3"{
}
package "4"{
}
package "5"{
}
package "6"{
}
package "7"{
}
package "8"{
}
package "10"{
class ExtjsPageRequest
}
package "12"{
}
package "14"{
}
package "15"{
}
}
package "9"{
}
package "11"{
}
package "16"{
}
"13"-->"2":ExtAjaxResponse:methodVariable
"13"-->"10":ExtjsPageRequest:methodInvocation, methodVariable
@enduml