@startuml
package "14"{
class GuestController
class GuestService
class IGuestService
class GuestRepository
class Guest
class GuestDto
class GuestInfoDto
class ExtjsPageRequestRequestInterfaceImpl
class RoomRequestInterfaceImpl
class IGuestServiceHandleRequest
class GuestHandleRequest
interface ExtjsPageRequestDTOInterface
interface ExtjsPageRequestRequestInterface
interface RoomRequestInterface
class ExtjsPageRequestDTO
class RoomDTO
class ExtAjaxResponseDTO
}
package "1"{
}
package "3"{
}
package "4"{
}
package "5"{
}
package "9"{
}
package "10"{
class ExtjsPageRequest
}
package "11"{
}
package "12"{
}
package "13"{
}
package "16"{
}
package "Monolith" {
package "0"{
class Room
class RoomController
class RoomController
}
package "2"{
}
package "6"{
}
package "7"{
}
package "8"{
}
package "15"{
}
}
"14"..>"10":ExtjsPageRequest:setSort (HTTP)
"14"..>"0":Room:getState (HTTP)
"0"..>"14":IGuestService:findGuestByIdCard (HTTP)
"0"..>"14":Guest:getRoom (HTTP)
@enduml